<svg xmlns="http://www.w3.org/2000/svg" width="48" height="48" viewBox="0 0 48 48">
    <path fill="#FFF" d="M25.208 20.25h5.643c.226 0 .409.183.409.408 0 .015-.297 1.807-.89 5.376-.033.197-.204.341-.403.341h-4.759v13.883c0 .226-.182.409-.408.409h-5.308c-.226 0-.409-.183-.409-.409V26.375h-3.675c-.225 0-.408-.183-.408-.408v-5.309c0-.225.183-.408.408-.408h3.675v-5.62c0-3.704 2.965-6.63 6.728-6.63h5.114c.226 0 .408.183.408.408v5.309c0 .225-.182.408-.408.408h-4.083c-.902 0-1.634.731-1.634 1.633v4.492z" opacity=".503"/>
</svg>
