<svg xmlns="http://www.w3.org/2000/svg" width="48" height="48" viewBox="0 0 48 48">
    <path fill="#FFF" d="M25.973 6.002l2.865.02 1.064.025c.49.015.946.035 1.52.061 1.915.088 3.224.392 4.369.837 1.183.46 2.187 1.075 3.188 2.076 1 1 1.616 2.005 2.076 3.188.396 1.018.68 2.165.8 3.753l.087 1.806.04 1.647c.014.983.018 2.329.018 4.585l-.012 4.06-.013.99c-.017.878-.043 1.485-.083 2.371-.088 1.916-.392 3.225-.837 4.37-.46 1.183-1.075 2.187-2.076 3.188-1 1-2.005 1.616-3.188 2.076-1.018.396-2.165.68-3.753.8l-1.806.087-1.647.04c-.983.014-2.329.018-4.585.018l-4.06-.012-.99-.013c-.878-.017-1.485-.043-2.371-.083-1.916-.088-3.225-.392-4.37-.837-1.183-.46-2.187-1.075-3.188-2.076-1-1-1.616-2.005-2.076-3.188-.396-1.018-.68-2.165-.8-3.753l-.037-.617c-.074-1.624-.1-2.313-.106-5.448l.008-5.797.034-1.996.064-1.601c.088-1.916.392-3.225.837-4.37.46-1.183 1.075-2.187 2.076-3.188 1-1 2.005-1.616 3.188-2.076 1.018-.396 2.165-.68 3.753-.8l1.974-.093c.86-.03 1.769-.044 3.563-.049l4.474-.001zm1.84 4.007H20.19l-1.519.023c-.599.015-1.157.038-1.911.072-1.361.062-2.266.244-3.103.57-.732.284-1.248.615-1.808 1.175-.56.561-.892 1.077-1.177 1.81-.284.732-.46 1.516-.54 2.612l-.081 1.752-.03 1.153-.02 2.851.007 5.782.023 1.519c.015.599.038 1.157.072 1.911.062 1.361.244 2.266.57 3.103.284.732.615 1.248 1.175 1.808.561.56 1.077.892 1.81 1.177.732.284 1.516.46 2.612.54l1.23.061 1.581.048c.563.011 1.21.017 2.082.02l6.68-.005 1.539-.025c.452-.012.872-.027 1.353-.048l.503-.022c1.361-.062 2.266-.244 3.103-.57.732-.284 1.248-.615 1.808-1.175.56-.561.892-1.077 1.177-1.81.284-.732.46-1.516.54-2.612l.061-1.23.048-1.581c.011-.563.017-1.21.02-2.082l-.005-6.68-.025-1.539c-.012-.452-.027-.872-.048-1.353l-.022-.503c-.062-1.361-.244-2.266-.57-3.103-.284-.732-.615-1.248-1.175-1.808-.561-.56-1.077-.892-1.81-1.177-.732-.284-1.516-.46-2.612-.54l-1.752-.081-1.664-.038-.5-.005zM24 15c4.97 0 9 4.03 9 9s-4.03 9-9 9-9-4.03-9-9 4.03-9 9-9zm0 4c-2.761 0-5 2.239-5 5s2.239 5 5 5 5-2.239 5-5-2.239-5-5-5zm9-6.2c1.105 0 2 .895 2 2s-.895 2-2 2-2-.895-2-2 .895-2 2-2z" opacity=".503"/>
</svg>
