<svg xmlns="http://www.w3.org/2000/svg" width="48" height="48" viewBox="0 0 48 48">
    <path fill="#FFF" d="M42.128 13.625c.264-.937 0-1.625-1.257-1.625h-4.157c-1.057 0-1.544.595-1.809 1.25 0 0-2.114 5.48-5.109 9.04-.969 1.03-1.41 1.358-1.938 1.358-.264 0-.647-.328-.647-1.264v-8.759c0-1.124-.306-1.625-1.187-1.625H19.49c-.66 0-1.058.522-1.058 1.016 0 1.066 1.497 1.312 1.652 4.31v6.51c0 1.427-.243 1.686-.771 1.686-1.41 0-4.837-5.505-6.87-11.803-.4-1.224-.799-1.719-1.861-1.719H6.425C5.238 12 5 12.595 5 13.25c0 1.171 1.41 6.98 6.562 14.66 3.436 5.246 8.276 8.09 12.68 8.09 2.643 0 2.97-.632 2.97-1.72v-3.964c0-1.263.25-1.515 1.086-1.515.617 0 1.674.327 4.14 2.857 2.82 2.997 3.284 4.342 4.87 4.342h4.157c1.188 0 1.781-.632 1.439-1.878-.375-1.242-1.72-3.044-3.507-5.18-.968-1.219-2.422-2.53-2.862-3.186-.617-.843-.44-1.218 0-1.967 0 0 5.065-7.587 5.593-10.164z" opacity=".503"/>
</svg>
