<svg xmlns="http://www.w3.org/2000/svg" width="65" height="45" viewBox="0 0 65 45">
  <path fill="#E54059" d="M11.9314286 45C14.2514286 43.1386861 16.4333333 41.0036496 18.4771429 38.5948905 20.5209524 36.1861314 22.3438095 33.6678832 23.9457143 31.040146 25.547619 28.4124088 26.7904762 25.7025547 27.6742857 22.9105839 28.5580952 20.1186131 29 17.4087591 29 14.7810219L29 14.7810219 29 12.6459854C29 9.03284672 27.84 6.02189781 25.52 3.61313869 23.2 1.20437956 20.0514286 0 16.0742857 0 12.0971429 0 8.94857143 1.20437956 6.62857143 3.61313869 4.30857143 6.02189781 3.14857143 9.03284672 3.14857143 12.6459854L3.14857143 12.6459854 3.14857143 13.4671533C3.14857143 16.3138686 4.14285714 18.9142336 6.13142857 21.2682482 8.12 23.6222628 10.9371429 24.7992701 14.5828571 24.7992701L14.5828571 24.7992701 15.08 24.7992701C14.1961905 27.9744526 12.4009524 31.3959854 9.69428571 35.0638686 6.98761905 38.7317518 3.75619048 42.0437956 0 45L0 45 11.9314286 45zM47.9314286 45C50.2514286 43.1386861 52.4333333 41.0036496 54.4771429 38.5948905 56.5209524 36.1861314 58.3438095 33.6678832 59.9457143 31.040146 61.547619 28.4124088 62.7904762 25.7025547 63.6742857 22.9105839 64.5580952 20.1186131 65 17.4087591 65 14.7810219L65 14.7810219 65 12.6459854C65 9.03284672 63.84 6.02189781 61.52 3.61313869 59.2 1.20437956 56.0514286 0 52.0742857 0 48.0971429 0 44.9485714 1.20437956 42.6285714 3.61313869 40.3085714 6.02189781 39.1485714 9.03284672 39.1485714 12.6459854L39.1485714 12.6459854 39.1485714 13.4671533C39.1485714 16.3138686 40.1428571 18.9142336 42.1314286 21.2682482 44.12 23.6222628 46.9371429 24.7992701 50.5828571 24.7992701L50.5828571 24.7992701 51.08 24.7992701C50.1961905 27.9744526 48.4009524 31.3959854 45.6942857 35.0638686 42.987619 38.7317518 39.7561905 42.0437956 36 45L36 45 47.9314286 45z"/>
</svg>
