<svg xmlns="http://www.w3.org/2000/svg" width="65" height="45" viewBox="0 0 65 45">
  <path fill="#FFF" d="M11.9314286,55 C14.2514286,53.1386861 16.4333333,51.0036496 18.4771429,48.5948905 C20.5209524,46.1861314 22.3438095,43.6678832 23.9457143,41.040146 C25.547619,38.4124088 26.7904762,35.7025547 27.6742857,32.9105839 C28.5580952,30.1186131 29,27.4087591 29,24.7810219 L29,24.7810219 L29,22.6459854 C29,19.0328467 27.84,16.0218978 25.52,13.6131387 C23.2,11.2043796 20.0514286,10 16.0742857,10 C12.0971429,10 8.94857143,11.2043796 6.62857143,13.6131387 C4.30857143,16.0218978 3.14857143,19.0328467 3.14857143,22.6459854 L3.14857143,22.6459854 L3.14857143,23.4671533 C3.14857143,26.3138686 4.14285714,28.9142336 6.13142857,31.2682482 C8.12,33.6222628 10.9371429,34.7992701 14.5828571,34.7992701 L14.5828571,34.7992701 L15.08,34.7992701 C14.1961905,37.9744526 12.4009524,41.3959854 9.69428571,45.0638686 C6.98761905,48.7317518 3.75619048,52.0437956 0,55 L0,55 L11.9314286,55 Z M47.9314286,55 C50.2514286,53.1386861 52.4333333,51.0036496 54.4771429,48.5948905 C56.5209524,46.1861314 58.3438095,43.6678832 59.9457143,41.040146 C61.547619,38.4124088 62.7904762,35.7025547 63.6742857,32.9105839 C64.5580952,30.1186131 65,27.4087591 65,24.7810219 L65,24.7810219 L65,22.6459854 C65,19.0328467 63.84,16.0218978 61.52,13.6131387 C59.2,11.2043796 56.0514286,10 52.0742857,10 C48.0971429,10 44.9485714,11.2043796 42.6285714,13.6131387 C40.3085714,16.0218978 39.1485714,19.0328467 39.1485714,22.6459854 L39.1485714,22.6459854 L39.1485714,23.4671533 C39.1485714,26.3138686 40.1428571,28.9142336 42.1314286,31.2682482 C44.12,33.6222628 46.9371429,34.7992701 50.5828571,34.7992701 L50.5828571,34.7992701 L51.08,34.7992701 C50.1961905,37.9744526 48.4009524,41.3959854 45.6942857,45.0638686 C42.987619,48.7317518 39.7561905,52.0437956 36,55 L36,55 L47.9314286,55 Z" opacity=".226" transform="translate(0 -10)"/>
</svg>
