<svg xmlns="http://www.w3.org/2000/svg" width="64" height="64" viewBox="0 0 64 64">
  <path fill="#777777" d="M32,0 L48,16 L48,36 L64,36 L64,56 L48,56 L48,64 L0,64 L0,0 L32,0 Z M28,4 L4,4 L4,60 L44,60 L44,56 L17,56 L17,36 L44,36 L44,20 L28,20 L28,4 Z M30.6083929,40.0000114 L25.8740224,40.0000114 L25.8740224,52 L28.4111294,52 L28.4111294,48.1093787 L30.5439399,48.1093787 C33.3037029,48.1093787 34.9091701,46.4628959 34.9091701,44.0664138 C34.9091701,41.6816505 33.3329997,40.0000114 30.6083929,40.0000114 Z M40.8505809,40.0000114 L36.5615224,40.0000114 L36.5615224,52 L40.8154246,52 C44.4716711,52 46.6865128,49.7382834 46.6865128,45.988287 C46.6865128,42.2500093 44.4716711,40.0000114 40.8505809,40.0000114 Z M56.5068274,40.0000114 L48.5615224,40.0000114 L48.5615224,52 L51.0986294,52 L51.0986294,47.0429735 L55.9794841,47.0429735 L55.9794841,44.9511786 L51.0986294,44.9511786 L51.0986294,42.0918063 L56.5068274,42.0918063 L56.5068274,40.0000114 Z M40.7158154,42.1738375 C42.9658132,42.1738375 44.1552652,43.3222739 44.1552652,45.988287 C44.1552652,48.6660188 42.9658132,49.8261739 40.709956,49.8261739 L39.0986294,49.8261739 L39.0986294,42.1738375 L40.7158154,42.1738375 Z M30.1220653,42.0742282 C31.5869076,42.0742282 32.2958913,42.8711025 32.2958913,44.0664138 C32.2958913,45.2558658 31.5869076,46.0761775 30.133784,46.0761775 L28.4111294,46.0761775 L28.4111294,42.0742282 L30.1220653,42.0742282 Z M32,5.66 L32,16 L42.342,16 L32,5.66 Z"/>
</svg>
