<svg xmlns="http://www.w3.org/2000/svg" width="64" height="64" viewBox="0 0 64 64">
  <path fill="#777" fill-rule="evenodd" d="M64,6 L64,58 L0,58 L0,6 L64,6 Z M60,10 L4,10 L4,54 L60,54 L60,10 Z M55,46 L55,50 L49,50 L49,46 L55,46 Z M45,46 L45,50 L39,50 L39,46 L45,46 Z M35,46 L35,50 L29,50 L29,46 L35,46 Z M25,46 L25,50 L19,50 L19,46 L25,46 Z M15,46 L15,50 L9,50 L9,46 L15,46 Z M27,23.339746 L42,32 L27,40.660254 L27,23.339746 Z M55,14 L55,18 L49,18 L49,14 L55,14 Z M45,14 L45,18 L39,18 L39,14 L45,14 Z M35,14 L35,18 L29,18 L29,14 L35,14 Z M25,14 L25,18 L19,18 L19,14 L25,14 Z M15,14 L15,18 L9,18 L9,14 L15,14 Z"/>
</svg>
