<svg xmlns="http://www.w3.org/2000/svg" width="64" height="64" viewBox="0 0 64 64">
  <path fill="#E54059" d="M32,0 L48,16 L48,36 L64,36 L64,56 L48,56 L48,64 L0,64 L0,0 L32,0 Z M28,4 L4,4 L4,60 L44,60 L44,56 L17,56 L17,36 L44,36 L44,20 L28,20 L28,4 Z M40.7949157,39.8359491 C37.5957,39.8359491 35.1757805,42.0742282 35.1757805,46.0000057 C35.1757805,49.9082051 37.5957,52.1640623 40.7949157,52.1640623 C43.9765533,52.1640623 46.414051,49.9257832 46.414051,46.0000057 C46.414051,42.0742282 43.9765533,39.8359491 40.7949157,39.8359491 Z M53.6679626,39.8359491 C50.4980438,39.8359491 48.0781242,42.0742282 48.0781242,46.0000057 C48.0781242,49.9140645 50.4570282,52.1640623 53.6679626,52.1640623 C56.7441316,52.1640623 58.6015517,50.1191424 58.876942,47.9101602 L56.3105382,47.8984414 C56.0703041,49.1816433 55.0624925,49.9199239 53.7089782,49.9199239 C51.8867143,49.9199239 50.6503874,48.5664095 50.6503874,46.0000057 C50.6503874,43.5039144 51.8691362,42.0800876 53.7265563,42.0800876 C55.1152269,42.0800876 56.117179,42.8828212 56.3105382,44.2011793 L58.876942,44.2011793 C58.542958,41.4296976 56.4453037,39.8359491 53.6679626,39.8359491 Z M27.6757762,40.0000114 L23.3867178,40.0000114 L23.3867178,52 L27.6406199,52 C31.2968665,52 33.5117081,49.7382834 33.5117081,45.988287 C33.5117081,42.2500093 31.2968665,40.0000114 27.6757762,40.0000114 Z M40.7949157,42.0800876 C42.6347577,42.0800876 43.8417878,43.4570394 43.8417878,46.0000057 C43.8417878,48.542972 42.6347577,49.9199239 40.7949157,49.9199239 C38.9492144,49.9199239 37.7480436,48.542972 37.7480436,46.0000057 C37.7480436,43.4570394 38.9492144,42.0800876 40.7949157,42.0800876 Z M27.5410107,42.1738375 C29.7910085,42.1738375 30.9804605,43.3222739 30.9804605,45.988287 C30.9804605,48.6660188 29.7910085,49.8261739 27.5351513,49.8261739 L25.9238247,49.8261739 L25.9238247,42.1738375 L27.5410107,42.1738375 Z M32,5.66 L32,16 L42.342,16 L32,5.66 Z"/>
</svg>
