<svg xmlns="http://www.w3.org/2000/svg" width="181" height="40" viewBox="0 0 181 40">
  <path fill="#E54059" d="M13.5891811.039117699L13.5891811 4.8662712 10.6617881 4.8662712 10.6617881 2.62979127 5.93136417 2.62979127 5.93136417 6.13124853 9.75014327 6.13124853 9.75014327 8.70168247 5.93136417 8.70168247 5.93136417 12.6990108 10.6617881 12.6990108 10.6617881 10.4422913 13.5891811 10.4422913 13.5891811 15.2896844.127225107 15.2896844.127225107 12.6990108 1.97077364 12.6990108 1.97077364 2.62979127.127225107 2.62979127.127225107.039117699 13.5891811.039117699zM22.2194193.039117699L22.5994098.0429916921C24.4684005.0817316229 25.8729628.411021035 26.8130966 1.03085993 27.8159059 1.69202141 28.3173106 2.69388346 28.3173106 4.03644607 28.3173106 5.51393959 27.5981241 6.56302746 26.1597511 7.18370967 27.0849018 7.5277835 27.7737002 8.00172834 28.2261461 8.60554419 28.6785921 9.20936003 28.9048151 9.95316671 28.9048151 10.8369642 28.9048151 13.8054443 26.6763498 15.2896844 22.2194193 15.2896844L22.2194193 15.2896844 15.128848 15.2896844 15.128848 12.6990108 17.0129141 12.6990108 17.0129141 2.62979127 15.128848 2.62979127 15.128848.039117699 22.2194193.039117699zM43.5417801.039117699L43.5417801 6.1717278 40.6143871 6.1717278 40.6143871 2.62979127 36.2182329 2.62979127 36.2182329 12.6990108 38.5885096 12.6990108 38.5885096 15.2896844 30.1000828 15.2896844 30.1000828 12.6990108 32.2779011 12.6990108 32.2779011 2.62979127 30.1000828 2.62979127 30.1000828.039117699 43.5417801.039117699zM58.0065455.039117699L58.0065455 4.8662712 55.0791525 4.8662712 55.0791525 2.62979127 50.3487285 2.62979127 50.3487285 6.13124853 54.1675076 6.13124853 54.1675076 8.70168247 50.3487285 8.70168247 50.3487285 12.6990108 55.0791525 12.6990108 55.0791525 10.4422913 58.0065455 10.4422913 58.0065455 15.2896844 44.5445895 15.2896844 44.5445895 12.6990108 46.388138 12.6990108 46.388138 2.62979127 44.5445895 2.62979127 44.5445895.039117699 58.0065455.039117699zM66.8697596.039117699L66.8697596 2.62979127 65.2693164 2.62979127 65.2693164 5.93897197 69.442624 5.93897197 69.442624 2.62979127 67.8826983 2.62979127 67.8826983.039117699 75.2062455.039117699 75.2062455 2.62979127 73.3019207 2.62979127 73.3019207 12.6990108 75.2062455 12.6990108 75.2062455 15.2896844 67.8826983 15.2896844 67.8826983 12.6990108 69.442624 12.6990108 69.442624 8.54988519 65.2693164 8.54988519 65.2693164 12.6990108 66.8697596 12.6990108 66.8697596 15.2896844 59.5056948 15.2896844 59.5056948 12.6990108 61.4100197 12.6990108 61.4100197 2.62979127 59.5056948 2.62979127 59.5056948.039117699 66.8697596.039117699zM83.9276482.039117699L83.9276482 2.62979127 82.3474637 2.62979127 82.3474637 8.22605099 86.5207714 3.76321096 86.5207714 2.62979127 84.9608457 2.62979127 84.9608457.039117699 92.3046517.039117699 92.3046517 2.62979127 90.3800681 2.62979127 90.3800681 12.6990108 92.3046517 12.6990108 92.3046517 15.2896844 84.9608457 15.2896844 84.9608457 12.6990108 86.5207714 12.6990108 86.5207714 6.92059438 82.3474637 11.353075 82.3474637 12.6990108 83.9276482 12.6990108 83.9276482 15.2896844 76.5838422 15.2896844 76.5838422 12.6990108 78.4881671 12.6990108 78.4881671 2.62979127 76.5838422 2.62979127 76.5838422.039117699 83.9276482.039117699zM108.8662.039117699L108.8662 2.62979127 106.769417 2.62979127 106.769417 12.6990108 108.8662 12.6990108 108.8662 15.2896844 100.874114 15.2896844 100.874114 12.6990108 102.808827 12.6990108 102.808827 8.62072392 101.046313 8.62072392 97.6023214 15.2896844 92.9529325 15.2896844 92.9529325 12.6990108 94.9180337 12.6990108 97.3896042 8.09449335 97.1310516 7.97153755C96.3759058 7.59204435 95.805368 7.11691886 95.4194384 6.54616109 94.9906276 5.91198579 94.7762222 5.12938648 94.7762222 4.19836317 94.7762222 2.84905401 95.2539917 1.81851915 96.2095306 1.10675857 97.1650695.394997988 98.4802016.039117699 100.154927.039117699L100.154927.039117699 108.8662.039117699zM21.976314 8.64096355L20.9735047 8.64096355 20.9735047 12.6990108 22.5334303 12.6990108C23.2357345 12.6990108 23.7945391 12.540467 24.209844 12.2233794 24.6251489 11.9062917 24.8328013 11.4070473 24.8328013 10.7256462 24.8328013 9.98352616 24.6183959 9.45054905 24.1895852 9.12671485 23.7607745 8.80288065 23.0230174 8.64096355 21.976314 8.64096355L21.976314 8.64096355zM102.808827 2.62979127L101.005796 2.62979127 100.775985 2.63659053C100.253055 2.66832038 99.8231896 2.81110469 99.4863874 3.06494348 99.1014707 3.35504494 98.9090124 3.79019715 98.9090124 4.37040008 98.9090124 5.57128523 99.7159869 6.1717278 101.329936 6.1717278L101.329936 6.1717278 102.808827 6.1717278 102.808827 2.62979127zM21.9054083 2.62979127L20.9735047 2.62979127 20.9735047 6.07052962 22.1991605 6.07052962C22.9217235 6.07052962 23.4619575 5.93222543 23.8198626 5.65561705 24.1777676 5.37900867 24.3567201 4.90675047 24.3567201 4.23884244 24.3567201 3.64514641 24.1423147 3.22854721 23.713504 2.98904484 23.2846932 2.74954246 22.6819947 2.62979127 21.9054083 2.62979127L21.9054083 2.62979127zM8.5654101 24.2797633C10.2401355 24.2797633 11.7173379 24.6086574 12.9970171 25.2664456 14.2766964 25.9242338 15.2693764 26.846824 15.9750571 28.034216 16.6807377 29.2216081 17.0335781 30.5810371 17.0335781 32.1125029 17.0335781 33.6642085 16.6807377 35.0337573 15.9750571 36.2211493 15.2693764 37.4085414 14.27332 38.3294449 12.9868878 38.9838598 11.7004555 39.6382747 10.2266297 39.9654822 8.5654101 39.9654822 6.93795517 39.9654822 5.47763513 39.6382747 4.18444999 38.9838598 2.89126485 38.3294449 1.88170256 37.4085414 1.15576312 36.2211493.429823678 35.0337573.0668539577 33.6642085.0668539577 32.1125029.0668539577 30.567544.421382521 29.2047417 1.13043965 28.0240962 1.83949678 26.8434507 2.83724145 25.9242338 4.12367367 25.2664456 5.41010588 24.6086574 6.89068469 24.2797633 8.5654101 24.2797633zM142.188644 24.2797633C143.863369 24.2797633 145.340572 24.6086574 146.620251 25.2664456 147.89993 25.9242338 148.89261 26.846824 149.598291 28.034216 150.303972 29.2216081 150.656812 30.5810371 150.656812 32.1125029 150.656812 33.6642085 150.303972 35.0337573 149.598291 36.2211493 148.89261 37.4085414 147.896554 38.3294449 146.610122 38.9838598 145.323689 39.6382747 143.849863 39.9654822 142.188644 39.9654822 140.561189 39.9654822 139.100869 39.6382747 137.807684 38.9838598 136.514499 38.3294449 135.504936 37.4085414 134.778997 36.2211493 134.053057 35.0337573 133.690088 33.6642085 133.690088 32.1125029 133.690088 30.567544 134.044616 29.2047417 134.753673 28.0240962 135.462731 26.8434507 136.460475 25.9242338 137.746907 25.2664456 139.03334 24.6086574 140.513918 24.2797633 142.188644 24.2797633zM24.5556613 24.5327588L24.9356518 24.5366328C26.8046425 24.5753727 28.2092047 24.9046621 29.1493385 25.524501 30.1521479 26.1856625 30.6535526 27.1875245 30.6535526 28.5300871 30.6535526 30.0075807 29.934366 31.0566685 28.495993 31.6773507 29.4211437 32.0214246 30.1099421 32.4953694 30.5623881 33.0991853 31.014834 33.7030011 31.241057 34.4468078 31.241057 35.3306053 31.241057 38.2990854 29.0125918 39.7833255 24.5556613 39.7833255L24.5556613 39.7833255 17.46509 39.7833255 17.46509 37.1926519 19.3491561 37.1926519 19.3491561 27.1234323 17.46509 27.1234323 17.46509 24.5327588 24.5556613 24.5327588zM38.6962863 24.5327588L38.6962863 27.1234323 37.1667487 27.1234323 37.1667487 29.542069 37.1715096 29.7760392C37.2000744 30.4573054 37.3571812 30.9527717 37.64283 31.2624382 37.9602174 31.606512 38.5274631 31.7785489 39.3445671 31.7785489 40.2562119 31.7785489 40.8977398 31.7043369 41.2691507 31.5559129L41.2691507 31.5559129 41.2691507 27.1234323 39.8409071 27.1234323 39.8409071 24.5327588 47.1644542 24.5327588 47.1644542 27.1234323 45.25 27.1234323 45.25 37.1926519 47.1644542 37.1926519 47.1644542 39.7833255 39.2331438 39.7833255 39.2331438 37.1926519 41.2691507 37.1926519 41.2691507 34.1465865 40.9851527 34.2251713C40.2088164 34.4224036 39.2804143 34.5210198 38.1999463 34.5210198 36.4306799 34.5210198 35.1510006 34.116227 34.3609084 33.3066415 33.5708162 32.4970561 33.1757701 31.2556916 33.1757701 29.5825483L33.1757701 29.5825483 33.1757701 27.1234323 31.474033 27.1234323 31.474033 24.5327588 38.6962863 24.5327588zM55.8757275 24.5327588L55.8757275 27.1234323 54.2955431 27.1234323 54.2955431 32.7196921 58.4688507 28.256852 58.4688507 27.1234323 56.9089251 27.1234323 56.9089251 24.5327588 64.252731 24.5327588 64.252731 27.1234323 62.3281474 27.1234323 62.3281474 37.1926519 64.252731 37.1926519 64.252731 39.7833255 56.9089251 39.7833255 56.9089251 37.1926519 58.4688507 37.1926519 58.4688507 31.4142355 54.2955431 35.846716 54.2955431 37.1926519 55.8757275 37.1926519 55.8757275 39.7833255 48.5319216 39.7833255 48.5319216 37.1926519 50.4362464 37.1926519 50.4362464 27.1234323 48.5319216 27.1234323 48.5319216 24.5327588 55.8757275 24.5327588zM73.0146512 24.5327588L73.0146512 27.1234323 71.414208 27.1234323 71.414208 30.432613 75.5875157 30.432613 75.5875157 27.1234323 74.02759 27.1234323 74.02759 24.5327588 81.3511372 24.5327588 81.3511372 27.1234323 79.4468123 27.1234323 79.4468123 37.1926519 81.3511372 37.1926519 81.3511372 39.7833255 74.02759 39.7833255 74.02759 37.1926519 75.5875157 37.1926519 75.5875157 33.0435263 71.414208 33.0435263 71.414208 37.1926519 73.0146512 37.1926519 73.0146512 39.7833255 65.6505865 39.7833255 65.6505865 37.1926519 67.5549114 37.1926519 67.5549114 27.1234323 65.6505865 27.1234323 65.6505865 24.5327588 73.0146512 24.5327588zM90.1130574 24.5327588L90.1130574 27.1234323 88.5126142 27.1234323 88.5126142 30.432613 92.6859218 30.432613 92.6859218 27.1234323 91.1259961 27.1234323 91.1259961 24.5327588 98.4495433 24.5327588 98.4495433 27.1234323 96.5452185 27.1234323 96.5452185 37.1926519 98.4495433 37.1926519 98.4495433 39.7833255 91.1259961 39.7833255 91.1259961 37.1926519 92.6859218 37.1926519 92.6859218 33.0435263 88.5126142 33.0435263 88.5126142 37.1926519 90.1130574 37.1926519 90.1130574 39.7833255 82.7489927 39.7833255 82.7489927 37.1926519 84.6533175 37.1926519 84.6533175 27.1234323 82.7489927 27.1234323 82.7489927 24.5327588 90.1130574 24.5327588zM107.170946 24.5327588L107.170946 27.1234323 105.590762 27.1234323 105.590762 32.7196921 109.764069 28.256852 109.764069 27.1234323 108.204144 27.1234323 108.204144 24.5327588 115.547949 24.5327588 115.547949 27.1234323 113.623366 27.1234323 113.623366 37.1926519 115.547949 37.1926519 115.547949 39.7833255 108.204144 39.7833255 108.204144 37.1926519 109.764069 37.1926519 109.764069 31.4142355 105.590762 35.846716 105.590762 37.1926519 107.170946 37.1926519 107.170946 39.7833255 99.82714 39.7833255 99.82714 37.1926519 101.731465 37.1926519 101.731465 27.1234323 99.82714 27.1234323 99.82714 24.5327588 107.170946 24.5327588zM124.765692 24.5327588L124.765692 27.1234323 122.830979 27.1234323 122.830979 37.1926519 124.613751 37.1926519 124.613751 39.7833255 116.814123 39.7833255 116.814123 37.1926519 118.85013 37.1926519 118.85013 27.1234323 116.814123 27.1234323 116.814123 24.5327588 124.765692 24.5327588zM133.578259 24.5327588L133.578259 27.1234323 131.714452 27.1234323 127.399333 31.3029175 132.41338 37.1926519 133.993564 37.1926519 133.993564 39.7833255 125.79889 39.7833255 125.79889 37.1926519 127.581662 37.1926519 122.962661 31.7785489 127.93619 27.1234323 126.112901 27.1234323 126.112901 24.5327588 133.578259 24.5327588zM158.07517 24.5327588L158.455161 24.5366328C160.324151 24.5753727 161.728714 24.9046621 162.668847 25.524501 163.671657 26.1856625 164.173061 27.1875245 164.173061 28.5300871 164.173061 30.0075807 163.453875 31.0566685 162.015502 31.6773507 162.940653 32.0214246 163.629451 32.4953694 164.081897 33.0991853 164.534343 33.7030011 164.760566 34.4468078 164.760566 35.3306053 164.760566 38.2990854 162.532101 39.7833255 158.07517 39.7833255L158.07517 39.7833255 150.984599 39.7833255 150.984599 37.1926519 152.868665 37.1926519 152.868665 27.1234323 150.984599 27.1234323 150.984599 24.5327588 158.07517 24.5327588zM178.009805 24.5327588L178.009805 27.1234323 175.953539 27.1234323 179.144296 37.1926519 180.967586 37.1926519 180.967586 39.7833255 173.46171 39.7833255 173.46171 37.1926519 175.416682 37.1926519 174.687366 34.6019783 170.726775 34.6019783 169.916424 37.1926519 171.952431 37.1926519 171.952431 39.7833255 165.206259 39.7833255 165.206259 37.1926519 167.090325 37.1926519 170.058236 27.1234323 168.022229 27.1234323 168.022229 24.5327588 178.009805 24.5327588zM8.5654101 27.0829531C7.70778862 27.0829531 6.96159041 27.3072757 6.32681545 27.755921 5.6920405 28.2045663 5.20414167 28.8083822 4.86311896 29.5673686 4.52209624 30.326355 4.35158489 31.1679865 4.35158489 32.0922633 4.35158489 33.0637659 4.5254727 33.9357569 4.87324834 34.7082364 5.22102398 35.4807159 5.71229928 36.087905 6.34707423 36.5298038 6.98184918 36.9717025 7.71454155 37.1926519 8.54515133 37.1926519 9.4027728 37.1926519 10.1540357 36.9717025 10.7989401 36.5298038 11.4438444 36.087905 11.9351197 35.4807159 12.2727659 34.7082364 12.6104122 33.9357569 12.7792353 33.0637659 12.7792353 32.0922633 12.7792353 31.1679865 12.6104122 30.326355 12.2727659 29.5673686 11.9351197 28.8083822 11.4472209 28.2045663 10.8090694 27.755921 10.170918 27.3072757 9.42303158 27.0829531 8.5654101 27.0829531zM24.312556 33.1346046L23.3097466 33.1346046 23.3097466 37.1926519 24.8696723 37.1926519C25.5719765 37.1926519 26.130781 37.0341081 26.5460859 36.7170204 26.9613908 36.3999328 27.1690432 35.9006884 27.1690432 35.2192873 27.1690432 34.4771672 26.9546379 33.9441901 26.5258271 33.6203559 26.0970164 33.2965217 25.3592593 33.1346046 24.312556 33.1346046L24.312556 33.1346046zM142.188644 27.0829531C141.331022 27.0829531 140.584824 27.3072757 139.950049 27.755921 139.315274 28.2045663 138.827375 28.8083822 138.486353 29.5673686 138.14533 30.326355 137.974819 31.1679865 137.974819 32.0922633 137.974819 33.0637659 138.148706 33.9357569 138.496482 34.7082364 138.844258 35.4807159 139.335533 36.087905 139.970308 36.5298038 140.605083 36.9717025 141.337775 37.1926519 142.168385 37.1926519 143.026007 37.1926519 143.77727 36.9717025 144.422174 36.5298038 145.067078 36.087905 145.558353 35.4807159 145.896 34.7082364 146.233646 33.9357569 146.402469 33.0637659 146.402469 32.0922633 146.402469 31.1679865 146.233646 30.326355 145.896 29.5673686 145.558353 28.8083822 145.070455 28.2045663 144.432303 27.755921 143.794152 27.3072757 143.046265 27.0829531 142.188644 27.0829531zM157.832065 33.1346046L156.829255 33.1346046 156.829255 37.1926519 158.389181 37.1926519C159.091485 37.1926519 159.65029 37.0341081 160.065595 36.7170204 160.4809 36.3999328 160.688552 35.9006884 160.688552 35.2192873 160.688552 34.4771672 160.474147 33.9441901 160.045336 33.6203559 159.616525 33.2965217 158.878768 33.1346046 157.832065 33.1346046L157.832065 33.1346046zM172.772911 27.7407413L171.405444 32.3452588 174.059344 32.3452588 172.772911 27.7407413zM24.2416503 27.1234323L23.3097466 27.1234323 23.3097466 30.5641707 24.5354025 30.5641707C25.2579655 30.5641707 25.7981995 30.4258665 26.1561045 30.1492581 26.5140095 29.8726497 26.692962 29.4003915 26.692962 28.7324835 26.692962 28.1387875 26.4785567 27.7221883 26.0497459 27.4826859 25.6209352 27.2431835 25.0182366 27.1234323 24.2416503 27.1234323L24.2416503 27.1234323zM157.761159 27.1234323L156.829255 27.1234323 156.829255 30.5641707 158.054911 30.5641707C158.777474 30.5641707 159.317708 30.4258665 159.675613 30.1492581 160.033518 29.8726497 160.212471 29.4003915 160.212471 28.7324835 160.212471 28.1387875 159.998066 27.7221883 159.569255 27.4826859 159.140444 27.2431835 158.537745 27.1234323 157.761159 27.1234323L157.761159 27.1234323z"/>
</svg>
