<svg xmlns="http://www.w3.org/2000/svg" width="160" height="37" viewBox="0 0 160 37">
  <path fill="#FFF" fill-opacity=".6" d="M152.106445,54 L152.106445,49.7900391 L149.566406,49.7900391 L149.566406,51.75 L145.461914,51.75 L145.461914,48.2783203 L148.775391,48.2783203 L148.775391,46.0458984 L145.461914,46.0458984 L145.461914,43.0048828 L149.566406,43.0048828 L149.566406,44.9472656 L152.106445,44.9472656 L152.106445,40.7548828 L140.425781,40.7548828 L140.425781,43.0048828 L142.025391,43.0048828 L142.025391,51.75 L140.425781,51.75 L140.425781,54 L152.106445,54 Z M159.594727,54 C163.461914,54 165.395508,52.7109375 165.395508,50.1328125 C165.395508,49.3652344 165.199219,48.7192383 164.806641,48.1948242 C164.414062,47.6704102 163.816406,47.2587891 163.013672,46.9599609 C164.261719,46.4208984 164.885742,45.5097656 164.885742,44.2265625 C164.885742,43.0605469 164.450684,42.1904297 163.580566,41.6162109 C162.710449,41.0419922 161.381836,40.7548828 159.594727,40.7548828 L159.594727,40.7548828 L153.442383,40.7548828 L153.442383,43.0048828 L155.077148,43.0048828 L155.077148,51.75 L153.442383,51.75 L153.442383,54 L159.594727,54 Z M159.577148,45.9931641 L158.513672,45.9931641 L158.513672,43.0048828 L159.322266,43.0048828 C159.996094,43.0048828 160.519043,43.1088867 160.891113,43.3168945 C161.263184,43.5249023 161.449219,43.8867188 161.449219,44.4023438 C161.449219,44.9824219 161.293945,45.3925781 160.983398,45.6328125 C160.672852,45.8730469 160.204102,45.9931641 159.577148,45.9931641 L159.577148,45.9931641 Z M159.867188,51.75 L158.513672,51.75 L158.513672,48.2255859 L159.383789,48.2255859 C160.291992,48.2255859 160.932129,48.3662109 161.304199,48.6474609 C161.67627,48.9287109 161.862305,49.3916016 161.862305,50.0361328 C161.862305,50.6279297 161.682129,51.0615234 161.321777,51.3369141 C160.961426,51.6123047 160.476562,51.75 159.867188,51.75 L159.867188,51.75 Z M173.797852,54 L173.797852,51.75 L171.741211,51.75 L171.741211,43.0048828 L175.555664,43.0048828 L175.555664,46.0810547 L178.095703,46.0810547 L178.095703,40.7548828 L166.432617,40.7548828 L166.432617,43.0048828 L168.322266,43.0048828 L168.322266,51.75 L166.432617,51.75 L166.432617,54 L173.797852,54 Z M190.646484,54 L190.646484,49.7900391 L188.106445,49.7900391 L188.106445,51.75 L184.001953,51.75 L184.001953,48.2783203 L187.31543,48.2783203 L187.31543,46.0458984 L184.001953,46.0458984 L184.001953,43.0048828 L188.106445,43.0048828 L188.106445,44.9472656 L190.646484,44.9472656 L190.646484,40.7548828 L178.96582,40.7548828 L178.96582,43.0048828 L180.56543,43.0048828 L180.56543,51.75 L178.96582,51.75 L178.96582,54 L190.646484,54 Z M198.336914,54 L198.336914,51.75 L196.948242,51.75 L196.948242,48.1464844 L200.569336,48.1464844 L200.569336,51.75 L199.21582,51.75 L199.21582,54 L205.570312,54 L205.570312,51.75 L203.917969,51.75 L203.917969,43.0048828 L205.570312,43.0048828 L205.570312,40.7548828 L199.21582,40.7548828 L199.21582,43.0048828 L200.569336,43.0048828 L200.569336,45.8789062 L196.948242,45.8789062 L196.948242,43.0048828 L198.336914,43.0048828 L198.336914,40.7548828 L191.947266,40.7548828 L191.947266,43.0048828 L193.599609,43.0048828 L193.599609,51.75 L191.947266,51.75 L191.947266,54 L198.336914,54 Z M213.137695,54 L213.137695,51.75 L211.766602,51.75 L211.766602,50.5810547 L215.387695,46.7314453 L215.387695,51.75 L214.03418,51.75 L214.03418,54 L220.40625,54 L220.40625,51.75 L218.736328,51.75 L218.736328,43.0048828 L220.40625,43.0048828 L220.40625,40.7548828 L214.03418,40.7548828 L214.03418,43.0048828 L215.387695,43.0048828 L215.387695,43.9892578 L211.766602,47.8652344 L211.766602,43.0048828 L213.137695,43.0048828 L213.137695,40.7548828 L206.765625,40.7548828 L206.765625,43.0048828 L208.417969,43.0048828 L208.417969,51.75 L206.765625,51.75 L206.765625,54 L213.137695,54 Z M225.00293,54 L227.991211,48.2080078 L229.520508,48.2080078 L229.520508,51.75 L227.841797,51.75 L227.841797,54 L234.776367,54 L234.776367,51.75 L232.957031,51.75 L232.957031,43.0048828 L234.776367,43.0048828 L234.776367,40.7548828 L227.217773,40.7548828 C225.764648,40.7548828 224.623535,41.0639648 223.794434,41.6821289 C222.965332,42.300293 222.550781,43.1953125 222.550781,44.3671875 C222.550781,45.1757812 222.736816,45.8554688 223.108887,46.40625 C223.480957,46.9570312 224.050781,47.4052734 224.818359,47.7509766 L224.818359,47.7509766 L222.673828,51.75 L220.96875,51.75 L220.96875,54 L225.00293,54 Z M229.520508,46.0810547 L228.237305,46.0810547 C226.836914,46.0810547 226.136719,45.5595703 226.136719,44.5166016 C226.136719,44.0126953 226.303711,43.6347656 226.637695,43.3828125 C226.97168,43.1308594 227.411133,43.0048828 227.956055,43.0048828 L227.956055,43.0048828 L229.520508,43.0048828 L229.520508,46.0810547 Z M115.754883,76.1582031 C117.196289,76.1582031 118.475098,75.8740234 119.591309,75.3056641 C120.70752,74.7373047 121.571777,73.9375 122.184082,72.90625 C122.796387,71.875 123.102539,70.6855469 123.102539,69.3378906 C123.102539,68.0078125 122.796387,66.8271484 122.184082,65.7958984 C121.571777,64.7646484 120.710449,63.9633789 119.600098,63.3920898 C118.489746,62.8208008 117.208008,62.5351562 115.754883,62.5351562 C114.301758,62.5351562 113.01709,62.8208008 111.900879,63.3920898 C110.784668,63.9633789 109.918945,64.7617188 109.303711,65.7871094 C108.688477,66.8125 108.380859,67.9960938 108.380859,69.3378906 C108.380859,70.6855469 108.695801,71.875 109.325684,72.90625 C109.955566,73.9375 110.831543,74.7373047 111.953613,75.3056641 C113.075684,75.8740234 114.342773,76.1582031 115.754883,76.1582031 Z M115.737305,73.75 C115.016602,73.75 114.380859,73.5581055 113.830078,73.1743164 C113.279297,72.7905273 112.853027,72.2631836 112.55127,71.5922852 C112.249512,70.9213867 112.098633,70.1640625 112.098633,69.3203125 C112.098633,68.5175781 112.246582,67.7866211 112.54248,67.1274414 C112.838379,66.4682617 113.261719,65.9438477 113.8125,65.5541992 C114.363281,65.1645508 115.010742,64.9697266 115.754883,64.9697266 C116.499023,64.9697266 117.147949,65.1645508 117.70166,65.5541992 C118.255371,65.9438477 118.678711,66.4682617 118.97168,67.1274414 C119.264648,67.7866211 119.411133,68.5175781 119.411133,69.3203125 C119.411133,70.1640625 119.264648,70.9213867 118.97168,71.5922852 C118.678711,72.2631836 118.252441,72.7905273 117.692871,73.1743164 C117.133301,73.5581055 116.481445,73.75 115.737305,73.75 Z M130.529297,76 C134.396484,76 136.330078,74.7109375 136.330078,72.1328125 C136.330078,71.3652344 136.133789,70.7192383 135.741211,70.1948242 C135.348633,69.6704102 134.750977,69.2587891 133.948242,68.9599609 C135.196289,68.4208984 135.820312,67.5097656 135.820312,66.2265625 C135.820312,65.0605469 135.385254,64.1904297 134.515137,63.6162109 C133.64502,63.0419922 132.316406,62.7548828 130.529297,62.7548828 L130.529297,62.7548828 L124.376953,62.7548828 L124.376953,65.0048828 L126.011719,65.0048828 L126.011719,73.75 L124.376953,73.75 L124.376953,76 L130.529297,76 Z M130.511719,67.9931641 L129.448242,67.9931641 L129.448242,65.0048828 L130.256836,65.0048828 C130.930664,65.0048828 131.453613,65.1088867 131.825684,65.3168945 C132.197754,65.5249023 132.383789,65.8867188 132.383789,66.4023438 C132.383789,66.9824219 132.228516,67.3925781 131.917969,67.6328125 C131.607422,67.8730469 131.138672,67.9931641 130.511719,67.9931641 L130.511719,67.9931641 Z M130.801758,73.75 L129.448242,73.75 L129.448242,70.2255859 L130.318359,70.2255859 C131.226562,70.2255859 131.866699,70.3662109 132.23877,70.6474609 C132.61084,70.9287109 132.796875,71.3916016 132.796875,72.0361328 C132.796875,72.6279297 132.616699,73.0615234 132.256348,73.3369141 C131.895996,73.6123047 131.411133,73.75 130.801758,73.75 L130.801758,73.75 Z M150.146484,76 L150.146484,73.75 L148.485352,73.75 L148.485352,65.0048828 L150.146484,65.0048828 L150.146484,62.7548828 L143.791992,62.7548828 L143.791992,65.0048828 L145.03125,65.0048828 L145.03125,68.8544922 C144.708984,68.9833984 144.152344,69.0478516 143.361328,69.0478516 C142.652344,69.0478516 142.160156,68.8984375 141.884766,68.5996094 C141.609375,68.3007812 141.47168,67.8027344 141.47168,67.1054688 L141.47168,67.1054688 L141.47168,65.0048828 L142.798828,65.0048828 L142.798828,62.7548828 L136.532227,62.7548828 L136.532227,65.0048828 L138.008789,65.0048828 L138.008789,67.140625 C138.008789,68.59375 138.351562,69.671875 139.037109,70.375 C139.722656,71.078125 140.833008,71.4296875 142.368164,71.4296875 C143.422852,71.4296875 144.310547,71.3212891 145.03125,71.1044922 L145.03125,71.1044922 L145.03125,73.75 L143.264648,73.75 L143.264648,76 L150.146484,76 Z M157.705078,76 L157.705078,73.75 L156.333984,73.75 L156.333984,72.5810547 L159.955078,68.7314453 L159.955078,73.75 L158.601562,73.75 L158.601562,76 L164.973633,76 L164.973633,73.75 L163.303711,73.75 L163.303711,65.0048828 L164.973633,65.0048828 L164.973633,62.7548828 L158.601562,62.7548828 L158.601562,65.0048828 L159.955078,65.0048828 L159.955078,65.9892578 L156.333984,69.8652344 L156.333984,65.0048828 L157.705078,65.0048828 L157.705078,62.7548828 L151.333008,62.7548828 L151.333008,65.0048828 L152.985352,65.0048828 L152.985352,73.75 L151.333008,73.75 L151.333008,76 L157.705078,76 Z M172.576172,76 L172.576172,73.75 L171.1875,73.75 L171.1875,70.1464844 L174.808594,70.1464844 L174.808594,73.75 L173.455078,73.75 L173.455078,76 L179.80957,76 L179.80957,73.75 L178.157227,73.75 L178.157227,65.0048828 L179.80957,65.0048828 L179.80957,62.7548828 L173.455078,62.7548828 L173.455078,65.0048828 L174.808594,65.0048828 L174.808594,67.8789062 L171.1875,67.8789062 L171.1875,65.0048828 L172.576172,65.0048828 L172.576172,62.7548828 L166.186523,62.7548828 L166.186523,65.0048828 L167.838867,65.0048828 L167.838867,73.75 L166.186523,73.75 L166.186523,76 L172.576172,76 Z M187.412109,76 L187.412109,73.75 L186.023438,73.75 L186.023438,70.1464844 L189.644531,70.1464844 L189.644531,73.75 L188.291016,73.75 L188.291016,76 L194.645508,76 L194.645508,73.75 L192.993164,73.75 L192.993164,65.0048828 L194.645508,65.0048828 L194.645508,62.7548828 L188.291016,62.7548828 L188.291016,65.0048828 L189.644531,65.0048828 L189.644531,67.8789062 L186.023438,67.8789062 L186.023438,65.0048828 L187.412109,65.0048828 L187.412109,62.7548828 L181.022461,62.7548828 L181.022461,65.0048828 L182.674805,65.0048828 L182.674805,73.75 L181.022461,73.75 L181.022461,76 L187.412109,76 Z M202.212891,76 L202.212891,73.75 L200.841797,73.75 L200.841797,72.5810547 L204.462891,68.7314453 L204.462891,73.75 L203.109375,73.75 L203.109375,76 L209.481445,76 L209.481445,73.75 L207.811523,73.75 L207.811523,65.0048828 L209.481445,65.0048828 L209.481445,62.7548828 L203.109375,62.7548828 L203.109375,65.0048828 L204.462891,65.0048828 L204.462891,65.9892578 L200.841797,69.8652344 L200.841797,65.0048828 L202.212891,65.0048828 L202.212891,62.7548828 L195.84082,62.7548828 L195.84082,65.0048828 L197.493164,65.0048828 L197.493164,73.75 L195.84082,73.75 L195.84082,76 L202.212891,76 Z M217.347656,76 L217.347656,73.75 L215.800781,73.75 L215.800781,65.0048828 L217.479492,65.0048828 L217.479492,62.7548828 L210.580078,62.7548828 L210.580078,65.0048828 L212.34668,65.0048828 L212.34668,73.75 L210.580078,73.75 L210.580078,76 L217.347656,76 Z M225.486328,76 L225.486328,73.75 L224.115234,73.75 L219.764648,68.6347656 L223.508789,65.0048828 L225.125977,65.0048828 L225.125977,62.7548828 L218.648438,62.7548828 L218.648438,65.0048828 L220.230469,65.0048828 L215.915039,69.0478516 L219.922852,73.75 L218.375977,73.75 L218.375977,76 L225.486328,76 Z M232.957031,76.1582031 C234.398438,76.1582031 235.677246,75.8740234 236.793457,75.3056641 C237.909668,74.7373047 238.773926,73.9375 239.38623,72.90625 C239.998535,71.875 240.304688,70.6855469 240.304688,69.3378906 C240.304688,68.0078125 239.998535,66.8271484 239.38623,65.7958984 C238.773926,64.7646484 237.912598,63.9633789 236.802246,63.3920898 C235.691895,62.8208008 234.410156,62.5351562 232.957031,62.5351562 C231.503906,62.5351562 230.219238,62.8208008 229.103027,63.3920898 C227.986816,63.9633789 227.121094,64.7617188 226.505859,65.7871094 C225.890625,66.8125 225.583008,67.9960938 225.583008,69.3378906 C225.583008,70.6855469 225.897949,71.875 226.527832,72.90625 C227.157715,73.9375 228.033691,74.7373047 229.155762,75.3056641 C230.277832,75.8740234 231.544922,76.1582031 232.957031,76.1582031 Z M232.939453,73.75 C232.21875,73.75 231.583008,73.5581055 231.032227,73.1743164 C230.481445,72.7905273 230.055176,72.2631836 229.753418,71.5922852 C229.45166,70.9213867 229.300781,70.1640625 229.300781,69.3203125 C229.300781,68.5175781 229.44873,67.7866211 229.744629,67.1274414 C230.040527,66.4682617 230.463867,65.9438477 231.014648,65.5541992 C231.56543,65.1645508 232.212891,64.9697266 232.957031,64.9697266 C233.701172,64.9697266 234.350098,65.1645508 234.903809,65.5541992 C235.45752,65.9438477 235.880859,66.4682617 236.173828,67.1274414 C236.466797,67.7866211 236.613281,68.5175781 236.613281,69.3203125 C236.613281,70.1640625 236.466797,70.9213867 236.173828,71.5922852 C235.880859,72.2631836 235.45459,72.7905273 234.89502,73.1743164 C234.335449,73.5581055 233.683594,73.75 232.939453,73.75 Z M247.731445,76 C251.598633,76 253.532227,74.7109375 253.532227,72.1328125 C253.532227,71.3652344 253.335938,70.7192383 252.943359,70.1948242 C252.550781,69.6704102 251.953125,69.2587891 251.150391,68.9599609 C252.398438,68.4208984 253.022461,67.5097656 253.022461,66.2265625 C253.022461,65.0605469 252.587402,64.1904297 251.717285,63.6162109 C250.847168,63.0419922 249.518555,62.7548828 247.731445,62.7548828 L247.731445,62.7548828 L241.579102,62.7548828 L241.579102,65.0048828 L243.213867,65.0048828 L243.213867,73.75 L241.579102,73.75 L241.579102,76 L247.731445,76 Z M247.713867,67.9931641 L246.650391,67.9931641 L246.650391,65.0048828 L247.458984,65.0048828 C248.132812,65.0048828 248.655762,65.1088867 249.027832,65.3168945 C249.399902,65.5249023 249.585938,65.8867188 249.585938,66.4023438 C249.585938,66.9824219 249.430664,67.3925781 249.120117,67.6328125 C248.80957,67.8730469 248.34082,67.9931641 247.713867,67.9931641 L247.713867,67.9931641 Z M248.003906,73.75 L246.650391,73.75 L246.650391,70.2255859 L247.520508,70.2255859 C248.428711,70.2255859 249.068848,70.3662109 249.440918,70.6474609 C249.812988,70.9287109 249.999023,71.3916016 249.999023,72.0361328 C249.999023,72.6279297 249.818848,73.0615234 249.458496,73.3369141 C249.098145,73.6123047 248.613281,73.75 248.003906,73.75 L248.003906,73.75 Z M259.772461,76 L259.772461,73.75 L258.005859,73.75 L258.708984,71.5 L262.145508,71.5 L262.77832,73.75 L261.082031,73.75 L261.082031,76 L267.594727,76 L267.594727,73.75 L266.012695,73.75 L263.244141,65.0048828 L265.02832,65.0048828 L265.02832,62.7548828 L256.362305,62.7548828 L256.362305,65.0048828 L258.128906,65.0048828 L255.553711,73.75 L253.918945,73.75 L253.918945,76 L259.772461,76 Z M261.600586,69.5400391 L259.297852,69.5400391 L260.484375,65.5410156 L261.600586,69.5400391 Z" transform="translate(-108 -40)"/>
</svg>
