<svg xmlns="http://www.w3.org/2000/svg" width="48" height="48" viewBox="0 0 48 48">
  <path fill="#E54059" d="M24,21.1715729 L32.5857864,12.5857864 C33.366835,11.8047379 34.633165,11.8047379 35.4142136,12.5857864 C36.1952621,13.366835 36.1952621,14.633165 35.4142136,15.4142136 L26.8284271,24 L35.4142136,32.5857864 C36.1952621,33.366835 36.1952621,34.633165 35.4142136,35.4142136 C34.633165,36.1952621 33.366835,36.1952621 32.5857864,35.4142136 L24,26.8284271 L15.4142136,35.4142136 C14.633165,36.1952621 13.366835,36.1952621 12.5857864,35.4142136 C11.8047379,34.633165 11.8047379,33.366835 12.5857864,32.5857864 L21.1715729,24 L12.5857864,15.4142136 C11.8047379,14.633165 11.8047379,13.366835 12.5857864,12.5857864 C13.366835,11.8047379 14.633165,11.8047379 15.4142136,12.5857864 L24,21.1715729 Z"/>
</svg>
