<svg xmlns="http://www.w3.org/2000/svg" width="48" height="48" viewBox="0 0 48 48">
  <path fill="#E54059" d="M12,22 L36,22 C37.1045695,22 38,22.8954305 38,24 C38,25.1045695 37.1045695,26 36,26 L12,26 C10.8954305,26 10,25.1045695 10,24 C10,22.8954305 10.8954305,22 12,22 Z M12,12 L36,12 C37.1045695,12 38,12.8954305 38,14 C38,15.1045695 37.1045695,16 36,16 L12,16 C10.8954305,16 10,15.1045695 10,14 C10,12.8954305 10.8954305,12 12,12 Z M12,32 L36,32 C37.1045695,32 38,32.8954305 38,34 C38,35.1045695 37.1045695,36 36,36 L12,36 C10.8954305,36 10,35.1045695 10,34 C10,32.8954305 10.8954305,32 12,32 Z"/>
</svg>
